<svg xmlns="http://www.w3.org/2000/svg" viewBox="0 0 444 296"><defs><style>.cls-1,.cls-7{isolation:isolate;}.cls-2{fill:#6dbfa2;}.cls-3{fill:#717070;}.cls-4{mix-blend-mode:multiply;}.cls-5{fill:#ec6328;}.cls-6,.cls-7{fill:#8c7fb5;}.cls-7,.cls-8{opacity:0.8;}.cls-9{fill:#fff;}.cls-10{fill:#453481;}.cls-11{fill:none;}</style></defs><g class="cls-1"><g id="Capa_2" data-name="Capa 2"><g id="Capa_1-2" data-name="Capa 1"><path class="cls-2" d="M302,194.3,275,70H239.88L212.71,194.3h31.14l6.88-51.43a15,15,0,1,1,12,.67l7.73,50.76H302Z"/><path class="cls-3" d="M89.88,230.86a3.51,3.51,0,0,1-1.18,2.52,4.17,4.17,0,0,1-2.82.93,3.73,3.73,0,0,1-3-1.29,5.25,5.25,0,0,1-1.1-3.54v-.61a6.11,6.11,0,0,1,.5-2.53,3.77,3.77,0,0,1,1.45-1.67,4,4,0,0,1,2.18-.59,4.09,4.09,0,0,1,2.78.92,3.81,3.81,0,0,1,1.22,2.59H87.84a2,2,0,0,0-.53-1.39,2,2,0,0,0-1.41-.44,1.74,1.74,0,0,0-1.53.74,4,4,0,0,0-.52,2.28v.75a4.5,4.5,0,0,0,.48,2.36,1.73,1.73,0,0,0,1.55.74,2,2,0,0,0,1.41-.43,1.91,1.91,0,0,0,.54-1.34Z"/><path class="cls-3" d="M97.55,232.12H94l-.68,2H91.09l3.7-9.95h1.9l3.73,9.95H98.24Zm-3-1.66H97l-1.25-3.73Zm1.66-8.91h2.15l-1.89,2.12H94.82Z"/><path class="cls-3" d="M108.72,225.88h-3v8.29h-2v-8.29h-3v-1.66h8.11Z"/><path class="cls-3" d="M116.58,229.86h-3.94v2.66h4.62v1.65h-6.67v-9.95h6.66v1.66h-4.61v2.37h3.94Z"/><path class="cls-3" d="M119.16,234.17v-9.95h3.07a4.67,4.67,0,0,1,2.34.59,4,4,0,0,1,1.62,1.68,5.16,5.16,0,0,1,.58,2.48v.46a5.19,5.19,0,0,1-.57,2.46,4.14,4.14,0,0,1-1.61,1.68,4.58,4.58,0,0,1-2.34.6Zm2-8.29v6.64h1a2.21,2.21,0,0,0,1.83-.78,3.49,3.49,0,0,0,.65-2.25V229a3.67,3.67,0,0,0-.62-2.3,2.23,2.23,0,0,0-1.84-.78Z"/><path class="cls-3" d="M132.65,230.53H131v3.64h-2v-9.95h3.7a4.2,4.2,0,0,1,2.72.78,2.73,2.73,0,0,1,1,2.23,3.08,3.08,0,0,1-.44,1.69,3,3,0,0,1-1.34,1.09l2.15,4.07v.09h-2.2ZM131,228.87h1.66a1.65,1.65,0,0,0,1.19-.4,1.37,1.37,0,0,0,.43-1.08,1.54,1.54,0,0,0-.4-1.11,1.67,1.67,0,0,0-1.23-.4H131Z"/><path class="cls-3" d="M144.22,232.12h-3.6l-.68,2h-2.18l3.7-9.95h1.9l3.73,9.95h-2.18Zm-3.05-1.66h2.49l-1.25-3.73Z"/><path class="cls-3" d="M160.72,230.86a3.52,3.52,0,0,1-1.19,2.52,4.13,4.13,0,0,1-2.82.93,3.73,3.73,0,0,1-3-1.29,5.3,5.3,0,0,1-1.1-3.54v-.61a6,6,0,0,1,.51-2.53,3.81,3.81,0,0,1,1.44-1.67,4.51,4.51,0,0,1,5,.33,3.77,3.77,0,0,1,1.22,2.59h-2a2.05,2.05,0,0,0-.54-1.39,2,2,0,0,0-1.4-.44,1.75,1.75,0,0,0-1.54.74,4.13,4.13,0,0,0-.52,2.28v.75a4.39,4.39,0,0,0,.49,2.36,1.73,1.73,0,0,0,1.54.74,2,2,0,0,0,1.42-.43,2,2,0,0,0,.54-1.34Z"/><path class="cls-3" d="M170.94,229.42a6,6,0,0,1-.52,2.58,4,4,0,0,1-1.49,1.71,4.37,4.37,0,0,1-4.42,0A3.92,3.92,0,0,1,163,232a6,6,0,0,1-.54-2.54V229a6,6,0,0,1,.53-2.58,4,4,0,0,1,1.5-1.72,4.37,4.37,0,0,1,4.42,0,3.89,3.89,0,0,1,1.5,1.72,6,6,0,0,1,.53,2.58Zm-2.08-.45a4.2,4.2,0,0,0-.56-2.38,1.83,1.83,0,0,0-1.6-.81,1.8,1.8,0,0,0-1.59.8,4.13,4.13,0,0,0-.57,2.35v.49a4.3,4.3,0,0,0,.56,2.37,2,2,0,0,0,3.2,0,4.19,4.19,0,0,0,.56-2.37Z"/><path class="cls-3" d="M176.81,230.53h-1.63v3.64h-2.05v-9.95h3.7a4.22,4.22,0,0,1,2.72.78,2.73,2.73,0,0,1,1,2.23,3.08,3.08,0,0,1-.44,1.69,3,3,0,0,1-1.34,1.09l2.15,4.07v.09h-2.2Zm-1.63-1.66h1.65a1.66,1.66,0,0,0,1.2-.4,1.41,1.41,0,0,0,.43-1.08,1.54,1.54,0,0,0-.4-1.11,1.67,1.67,0,0,0-1.23-.4h-1.65Z"/><path class="cls-3" d="M190.3,224.22v6.55a3.38,3.38,0,0,1-1,2.59,4.6,4.6,0,0,1-5.57,0,3.28,3.28,0,0,1-1-2.53v-6.63h2.05v6.57a1.9,1.9,0,0,0,.47,1.42,1.78,1.78,0,0,0,1.29.45c1.16,0,1.74-.61,1.76-1.82v-6.62Z"/><path class="cls-3" d="M200.77,234.17h-2.05l-4-6.55v6.55h-2v-9.95h2l4,6.56v-6.56h2Z"/><path class="cls-3" d="M209.25,229.86h-3.94v2.66h4.63v1.65h-6.68v-9.95h6.66v1.66h-4.61v2.37h3.94Z"/><path class="cls-3" d="M219.47,225.88h-3.05v8.29h-2v-8.29h-3v-1.66h8.11Z"/><path class="cls-3" d="M84.12,247.46V251H82.07V241H86a4.36,4.36,0,0,1,2,.41,3,3,0,0,1,1.31,1.16,3.23,3.23,0,0,1,.46,1.72,2.85,2.85,0,0,1-1,2.31,4.18,4.18,0,0,1-2.77.84Zm0-1.66H86a1.82,1.82,0,0,0,1.24-.38,1.37,1.37,0,0,0,.43-1.09A1.53,1.53,0,0,0,86,242.68H84.12Z"/><path class="cls-3" d="M100,246.22a6.12,6.12,0,0,1-.51,2.58A4,4,0,0,1,98,250.51a4.39,4.39,0,0,1-4.43,0,3.84,3.84,0,0,1-1.5-1.7,5.68,5.68,0,0,1-.54-2.54v-.49A5.83,5.83,0,0,1,92,243.2a3.89,3.89,0,0,1,1.5-1.72,4.37,4.37,0,0,1,4.42,0,4,4,0,0,1,1.5,1.72,6,6,0,0,1,.52,2.58Zm-2.07-.45a4.2,4.2,0,0,0-.56-2.38,2,2,0,0,0-3.2,0,4.14,4.14,0,0,0-.56,2.35v.49a4.16,4.16,0,0,0,.56,2.36,2,2,0,0,0,3.2,0,4.27,4.27,0,0,0,.56-2.37Z"/><path class="cls-3" d="M105.85,247.33h-1.63V251h-2V241h3.69a4.18,4.18,0,0,1,2.72.78,2.73,2.73,0,0,1,1,2.23,3.08,3.08,0,0,1-.44,1.69,3,3,0,0,1-1.34,1.09l2.16,4.07V251h-2.2Zm-1.63-1.66h1.65a1.69,1.69,0,0,0,1.2-.4,1.4,1.4,0,0,0,.42-1.08,1.5,1.5,0,0,0-.4-1.11,1.66,1.66,0,0,0-1.23-.4h-1.64Z"/><path class="cls-3" d="M122,246.66H118v2.66h4.62V251H116V241h6.65v1.66H118v2.37H122Z"/><path class="cls-3" d="M126.61,249.32H131V251h-6.41V241h2Z"/><path class="cls-3" d="M139.21,251h-2.05V241h2.05Z"/><path class="cls-3" d="M144.49,241l2.55,7.22,2.55-7.22h2.69V251h-2.06v-2.72l.21-4.7L147.74,251h-1.41l-2.68-7.41.21,4.69V251h-2.05V241Z"/><path class="cls-3" d="M156.82,247.46V251h-2V241h3.89a4.42,4.42,0,0,1,2,.41,3.08,3.08,0,0,1,1.31,1.16,3.32,3.32,0,0,1,.45,1.72,2.85,2.85,0,0,1-1,2.31,4.17,4.17,0,0,1-2.77.84Zm0-1.66h1.84a1.84,1.84,0,0,0,1.24-.38,1.39,1.39,0,0,0,.42-1.09,1.64,1.64,0,0,0-.43-1.19,1.6,1.6,0,0,0-1.19-.46h-1.88Z"/><path class="cls-3" d="M172,241v6.55a3.35,3.35,0,0,1-1,2.59,4.58,4.58,0,0,1-5.56,0,3.28,3.28,0,0,1-1-2.53V241h2.05v6.57a1.86,1.86,0,0,0,.47,1.42,1.78,1.78,0,0,0,1.29.45c1.16,0,1.74-.61,1.76-1.82V241Z"/><path class="cls-3" d="M176.47,249.32h4.35V251h-6.4V241h2.05Z"/><path class="cls-3" d="M187.86,248.36a1,1,0,0,0-.41-.89,5.28,5.28,0,0,0-1.48-.66,10.48,10.48,0,0,1-1.68-.68,2.76,2.76,0,0,1-1.7-2.47,2.44,2.44,0,0,1,.45-1.44,3,3,0,0,1,1.31-1,4.85,4.85,0,0,1,1.91-.36,4.42,4.42,0,0,1,1.9.39,3,3,0,0,1,1.3,1.09,2.91,2.91,0,0,1,.46,1.6h-2a1.38,1.38,0,0,0-.43-1.07,1.79,1.79,0,0,0-1.21-.38,1.91,1.91,0,0,0-1.17.32,1,1,0,0,0-.42.84,1,1,0,0,0,.49.81,5.39,5.39,0,0,0,1.44.62,6.22,6.22,0,0,1,2.55,1.3,2.62,2.62,0,0,1,.8,1.95,2.39,2.39,0,0,1-1,2,4.28,4.28,0,0,1-2.63.74,5.07,5.07,0,0,1-2.09-.42,3.35,3.35,0,0,1-1.44-1.15,3,3,0,0,1-.5-1.7h2.06c0,1.1.66,1.65,2,1.65a1.89,1.89,0,0,0,1.14-.3A1,1,0,0,0,187.86,248.36Z"/><path class="cls-3" d="M200.18,246.22a6,6,0,0,1-.52,2.58,4,4,0,0,1-1.49,1.71,4.37,4.37,0,0,1-4.42,0,3.92,3.92,0,0,1-1.51-1.7,6,6,0,0,1-.54-2.54v-.49a6,6,0,0,1,.53-2.58,4,4,0,0,1,1.5-1.72,4.37,4.37,0,0,1,4.42,0,3.89,3.89,0,0,1,1.5,1.72,6,6,0,0,1,.53,2.58Zm-2.08-.45a4.12,4.12,0,0,0-.56-2.38,1.83,1.83,0,0,0-1.6-.81,1.8,1.8,0,0,0-1.59.8,4.22,4.22,0,0,0-.57,2.35v.49a4.24,4.24,0,0,0,.56,2.36,2,2,0,0,0,3.2,0,4.19,4.19,0,0,0,.56-2.37Z"/><path class="cls-3" d="M206.56,251V241h3.06a4.58,4.58,0,0,1,2.35.59,4,4,0,0,1,1.61,1.68,5.16,5.16,0,0,1,.59,2.48v.46a5.08,5.08,0,0,1-.58,2.46,4.11,4.11,0,0,1-1.6,1.68,4.64,4.64,0,0,1-2.35.6Zm2.05-8.29v6.64h1a2.25,2.25,0,0,0,1.84-.78,3.61,3.61,0,0,0,.65-2.25v-.53a3.6,3.6,0,0,0-.63-2.3,2.22,2.22,0,0,0-1.84-.78Z"/><path class="cls-3" d="M222.34,246.66h-3.93v2.66H223V251h-6.67V241H223v1.66h-4.6v2.37h3.93Z"/><path class="cls-3" d="M231.17,249.32h4.35V251h-6.4V241h2Z"/><path class="cls-3" d="M243.15,248.92h-3.6l-.68,2.05h-2.18l3.7-9.95h1.9L246,251h-2.18Zm-3-1.66h2.48l-1.25-3.73Z"/><path class="cls-3" d="M259.65,247.66a3.48,3.48,0,0,1-1.19,2.52,4.13,4.13,0,0,1-2.82.93,3.75,3.75,0,0,1-3-1.29,5.3,5.3,0,0,1-1.1-3.54v-.61a6,6,0,0,1,.51-2.53,3.85,3.85,0,0,1,1.45-1.68,4.54,4.54,0,0,1,5,.34,3.8,3.8,0,0,1,1.21,2.59h-2.05a2.1,2.1,0,0,0-.53-1.39,2,2,0,0,0-1.41-.44,1.73,1.73,0,0,0-1.53.74,4.12,4.12,0,0,0-.53,2.28v.75a4.49,4.49,0,0,0,.49,2.36,1.73,1.73,0,0,0,1.54.74,1.69,1.69,0,0,0,2-1.77Z"/><path class="cls-3" d="M263.88,251h-2.05V241h2.05Z"/><path class="cls-3" d="M272.46,246.66h-3.93v2.66h4.62V251h-6.67V241h6.65v1.66h-4.6v2.37h3.93Z"/><path class="cls-3" d="M283.14,251h-2.05l-4-6.55V251h-2.05V241h2.05l4,6.56V241h2Z"/><path class="cls-3" d="M293.45,247.66a3.48,3.48,0,0,1-1.19,2.52,4.13,4.13,0,0,1-2.82.93,3.75,3.75,0,0,1-3-1.29,5.3,5.3,0,0,1-1.1-3.54v-.61a6,6,0,0,1,.51-2.53,3.85,3.85,0,0,1,1.45-1.68,4.54,4.54,0,0,1,5,.34,3.8,3.8,0,0,1,1.21,2.59h-2a2.1,2.1,0,0,0-.53-1.39,2,2,0,0,0-1.41-.44,1.74,1.74,0,0,0-1.53.74,4.12,4.12,0,0,0-.53,2.28v.75a4.49,4.49,0,0,0,.49,2.36,1.73,1.73,0,0,0,1.54.74,1.69,1.69,0,0,0,2-1.77Z"/><path class="cls-3" d="M297.68,251h-2.05V241h2.05Z"/><path class="cls-3" d="M306,248.92h-3.6l-.68,2.05h-2.18l3.7-9.95h1.91l3.72,9.95h-2.18Zm-3-1.66h2.49l-1.26-3.73Z"/><path class="cls-3" d="M320.33,248.92h-3.6l-.68,2.05h-2.18l3.7-9.95h1.9L323.2,251H321Zm-3.05-1.66h2.49l-1.25-3.73Z"/><path class="cls-3" d="M324.83,251V241h3.48a4.59,4.59,0,0,1,2.75.69,2.39,2.39,0,0,1,.94,2,2.24,2.24,0,0,1-.38,1.28,2.12,2.12,0,0,1-1,.82,2.12,2.12,0,0,1,1.2.77,2.25,2.25,0,0,1,.44,1.42,2.63,2.63,0,0,1-.91,2.18,4.14,4.14,0,0,1-2.61.75Zm2.05-5.78h1.51c1,0,1.56-.43,1.56-1.24a1.11,1.11,0,0,0-.4-1,2,2,0,0,0-1.24-.3h-1.43Zm0,1.45v2.68h1.75a1.72,1.72,0,0,0,1.14-.34,1.19,1.19,0,0,0,.4-1,1.24,1.24,0,0,0-1.41-1.38Z"/><path class="cls-3" d="M336.64,251h-2.05V241h2.05Z"/><path class="cls-3" d="M345.23,246.66h-3.94v2.66h4.62V251h-6.67V241h6.66v1.66h-4.61v2.37h3.94Z"/><path class="cls-3" d="M351.5,247.33h-1.63V251h-2.05V241h3.69a4.23,4.23,0,0,1,2.73.78,2.75,2.75,0,0,1,.95,2.23,3.08,3.08,0,0,1-.44,1.69,3,3,0,0,1-1.33,1.09l2.15,4.07V251h-2.2Zm-1.63-1.66h1.65a1.66,1.66,0,0,0,1.2-.4,1.4,1.4,0,0,0,.42-1.08,1.5,1.5,0,0,0-.4-1.11,1.66,1.66,0,0,0-1.23-.4h-1.64Z"/><path class="cls-3" d="M364.6,242.68h-3.05V251H359.5v-8.29h-3V241h8.11Z"/><path class="cls-3" d="M371.27,248.92h-3.6L367,251h-2.18l3.7-9.95h1.91l3.72,9.95H372Zm-3-1.66h2.49l-1.26-3.73Z"/><path class="cls-3" d="M87.69,265.72h-3.6l-.68,2H81.23l3.7-9.95h1.9l3.73,9.95H88.38Zm-3-1.66h2.48l-1.25-3.73Z"/><path class="cls-3" d="M103.46,259.48h-3v8.29h-2v-8.29h-3v-1.66h8.11Z"/><path class="cls-3" d="M109,264.13h-1.63v3.64h-2v-9.95H109a4.18,4.18,0,0,1,2.72.78,2.73,2.73,0,0,1,1,2.23,3.08,3.08,0,0,1-.44,1.69,3,3,0,0,1-1.34,1.09l2.16,4.06v.1h-2.2Zm-1.63-1.66H109a1.74,1.74,0,0,0,1.2-.4,1.4,1.4,0,0,0,.42-1.08,1.5,1.5,0,0,0-.4-1.11,1.66,1.66,0,0,0-1.23-.4h-1.64Z"/><path class="cls-3" d="M120.58,265.72H117l-.68,2h-2.18l3.7-9.95h1.9l3.73,9.95h-2.18Zm-3-1.66H120l-1.26-3.73Z"/><path class="cls-3" d="M128.23,265.3l2.26-7.48h2.28l-3.47,9.95h-2.13l-3.46-9.95H126Z"/><path class="cls-3" d="M140.4,263.46h-3.94v2.66h4.62v1.65h-6.67v-9.95h6.66v1.66h-4.61v2.37h3.94Zm-2.14-8.33h2.15l-1.89,2.12h-1.61Z"/><path class="cls-3" d="M148.14,265.16a1,1,0,0,0-.41-.89,5.18,5.18,0,0,0-1.47-.66,10.64,10.64,0,0,1-1.69-.68,2.76,2.76,0,0,1-1.7-2.47,2.38,2.38,0,0,1,.46-1.44,2.92,2.92,0,0,1,1.3-1,4.89,4.89,0,0,1,1.91-.36,4.42,4.42,0,0,1,1.9.39,3,3,0,0,1,1.3,1.09,2.83,2.83,0,0,1,.46,1.6h-2a1.35,1.35,0,0,0-.43-1.07,1.79,1.79,0,0,0-1.21-.38,1.91,1.91,0,0,0-1.17.32,1,1,0,0,0-.42.84,1,1,0,0,0,.49.81,5.54,5.54,0,0,0,1.44.62,6.16,6.16,0,0,1,2.55,1.3,2.62,2.62,0,0,1,.8,1.95,2.37,2.37,0,0,1-1,2,4.28,4.28,0,0,1-2.63.74,5.1,5.1,0,0,1-2.09-.42,3.3,3.3,0,0,1-1.44-1.16,2.92,2.92,0,0,1-.49-1.69h2.05c0,1.1.66,1.65,2,1.65a1.89,1.89,0,0,0,1.14-.3A1,1,0,0,0,148.14,265.16Z"/><path class="cls-3" d="M156.47,267.77v-9.95h3.07a4.55,4.55,0,0,1,2.34.59,4,4,0,0,1,1.62,1.68,5.16,5.16,0,0,1,.58,2.48V263a5.19,5.19,0,0,1-.57,2.46,4.14,4.14,0,0,1-1.61,1.68,4.58,4.58,0,0,1-2.34.6Zm2.06-8.29v6.64h1a2.25,2.25,0,0,0,1.84-.78,3.54,3.54,0,0,0,.64-2.25v-.53a3.67,3.67,0,0,0-.62-2.3,2.23,2.23,0,0,0-1.84-.78Z"/><path class="cls-3" d="M172.26,263.46h-3.94v2.66H173v1.65h-6.68v-9.95h6.66v1.66h-4.61v2.37h3.94Z"/><path class="cls-3" d="M176.9,266.12h4.35v1.65h-6.4v-9.95h2.05Z"/><path class="cls-3" d="M192.48,265.16a1,1,0,0,0-.41-.89,5.42,5.42,0,0,0-1.48-.66,11.05,11.05,0,0,1-1.69-.68,2.75,2.75,0,0,1-1.69-2.47,2.44,2.44,0,0,1,.45-1.44,2.9,2.9,0,0,1,1.31-1,4.82,4.82,0,0,1,1.91-.36,4.45,4.45,0,0,1,1.9.39,3,3,0,0,1,1.29,1.09,2.83,2.83,0,0,1,.46,1.6h-2.05a1.35,1.35,0,0,0-.43-1.07,1.77,1.77,0,0,0-1.21-.38,1.91,1.91,0,0,0-1.17.32,1,1,0,0,0-.41.84,1,1,0,0,0,.49.81,5.31,5.31,0,0,0,1.43.62,6.16,6.16,0,0,1,2.55,1.3,2.59,2.59,0,0,1,.8,1.95,2.38,2.38,0,0,1-1,2,4.29,4.29,0,0,1-2.64.74,5.1,5.1,0,0,1-2.09-.42,3.3,3.3,0,0,1-1.44-1.16,2.92,2.92,0,0,1-.49-1.69H189c0,1.1.65,1.65,2,1.65a1.94,1.94,0,0,0,1.15-.3A1,1,0,0,0,192.48,265.16Z"/><path class="cls-3" d="M204.8,263a6.12,6.12,0,0,1-.52,2.58,4,4,0,0,1-1.49,1.71,4.37,4.37,0,0,1-4.42,0,3.92,3.92,0,0,1-1.51-1.7,6,6,0,0,1-.54-2.54v-.49a6,6,0,0,1,.53-2.58,3.89,3.89,0,0,1,1.5-1.72,4.37,4.37,0,0,1,4.42,0,3.89,3.89,0,0,1,1.5,1.72,6,6,0,0,1,.53,2.58Zm-2.08-.45a4.2,4.2,0,0,0-.56-2.38,1.83,1.83,0,0,0-1.6-.81,1.8,1.8,0,0,0-1.59.8,4,4,0,0,0-.57,2.35V263a4.24,4.24,0,0,0,.56,2.36,2,2,0,0,0,3.2,0,4.27,4.27,0,0,0,.56-2.37Z"/><path class="cls-3" d="M213,263.7H209v4.07h-2v-9.95h6.48v1.66H209v2.57H213Z"/><path class="cls-3" d="M223,259.48h-3.05v8.29h-2.05v-8.29h-3v-1.66H223Z"/><path class="cls-3" d="M232.71,264.9l1.34-7.08h2l-2.2,9.95h-2.07l-1.62-6.66-1.62,6.66h-2.06l-2.21-9.95h2l1.35,7.07,1.64-7.07h1.74Z"/><path class="cls-3" d="M243.23,265.72h-3.6l-.68,2h-2.18l3.7-9.95h1.9l3.73,9.95h-2.18Zm-3-1.66h2.49l-1.25-3.73Z"/><path class="cls-3" d="M251.41,264.13h-1.63v3.64h-2.05v-9.95h3.7a4.22,4.22,0,0,1,2.72.78,2.75,2.75,0,0,1,.95,2.23,2.8,2.8,0,0,1-1.77,2.78l2.15,4.06v.1h-2.2Zm-1.63-1.66h1.65a1.7,1.7,0,0,0,1.2-.4,1.4,1.4,0,0,0,.42-1.08,1.5,1.5,0,0,0-.4-1.11,1.63,1.63,0,0,0-1.22-.4h-1.65Z"/><path class="cls-3" d="M263.35,263.46h-3.94v2.66H264v1.65h-6.67v-9.95H264v1.66h-4.61v2.37h3.94Z"/><g class="cls-4"><path class="cls-2" d="M201,113.44v-8c0-10.6-3.8-16.07-9.27-16.07-9.12-.16-11.27,4.81-11.27,12.93l-.17,61.47c0,7,2.82,11.1,10.44,11.1,9.94,0,10.77-10.27,10.77-17.89V145.75h29.17V161c0,21.37-12.26,36.29-42.09,36.29-26.85,0-37.29-14.26-37.29-39.61v-51c0-27,12.43-39.6,39.11-39.6,24.86,0,40.27,10.61,40.27,36v10.44Z"/></g><g class="cls-4"><path class="cls-5" d="M314.11,152.71v8.78c0,7.13,2.32,13.42,11.6,13.42,6.8,0,9.78-6.13,9.78-12.42,0-10.44-8.62-14.42-16.24-19.06-8.95-5.14-16.57-9.94-22-16.24-5.3-6.29-8.45-13.92-8.45-24.85C288.76,79,302.85,67,325.38,67c25.36,0,38.28,16.9,36.95,40.27H335.49c-.33-7.29,0-17.24-9.61-17.9-6-.5-9.45,2.82-10.11,8.29-.83,7.45,3,11.26,8.78,15.24,10.94,7,20.38,11.27,27.18,17.57s10.77,14.58,10.77,29.66c0,23.86-13.26,37.12-37.45,37.12-26.68,0-37.94-14.92-37.94-31.32V152.71Z"/></g><path class="cls-6" d="M150.59,80a9.77,9.77,0,0,1-1.28-.07l-.75-.1a10.25,10.25,0,0,1-1.81-.33l-.39-.1c-.55-.15-1.06-.3-1.56-.48l-.61-.14-.43-.12a20.8,20.8,0,0,1-4.1-1.54,25,25,0,0,1-3.29-2,8.81,8.81,0,0,1-2.53-1.44V194.3H163V75.19a18.52,18.52,0,0,1-8.95,4.51A21,21,0,0,1,150.59,80Z"/><g id="layer4"><g id="layer1-7"><path id="path4046" class="cls-6" d="M141.42,69.53l-.67-.07a12,12,0,0,1-7.32-3.08c-2.74-2.58-4.21-6.36-4.38-11.31a25.5,25.5,0,0,1,2.62-12.17c2.46-4.91,6.34-8.35,10.79-9.58a12.48,12.48,0,0,1,2.21-.49,3.18,3.18,0,0,0,.41-.06,31.53,31.53,0,0,1,6.61,0c1.09.12,3.08.42,3.15.46a1.81,1.81,0,0,0,.36.08c.18,0,.73.14,1.22.26,6.33,1.49,10.65,4.61,11.94,8.62a8.64,8.64,0,0,1,.42,3.38,12.5,12.5,0,0,1-.24,2.87c-.12.71-.25,1.47-.28,1.68s-.16.87-.28,1.44-.27,1.3-.33,1.61a35.53,35.53,0,0,1-1.39,5.56,10.64,10.64,0,0,1-3.5,5.27A10.76,10.76,0,0,1,159,65.61l-1,.22-.82.18-1,.22-1.29.29c-.26,0-.7.17-1,.25l-1,.28c-.26.07-1.06.32-1.79.56a33.21,33.21,0,0,1-7.43,1.84c-.37,0-2.37.11-2.41.08Z"/></g></g><g id="layer5"><g id="layer2"><path id="path4060" class="cls-7" d="M149.4,70.33a7.43,7.43,0,0,1-2.81-.85l-1-.49c-.25-.15-1.41-.87-1.65-1l-.62-.4-.67-.43c-.47-.31-2.07-1.27-2.19-1.31a5.12,5.12,0,0,1-.52-.28c-.22-.12-1.24-.66-2.27-1.18A37,37,0,0,1,133.53,62c-3.75-2.48-6-5.47-6.75-9a12.49,12.49,0,0,1,.16-5.15,19.59,19.59,0,0,1,6.14-9.34A25.14,25.14,0,0,1,144,32.71a20,20,0,0,1,8.1-.21c4.37.88,8.29,3.76,12.21,9,3.24,4.31,5,8.44,5.21,12.13A9.67,9.67,0,0,1,165.93,62c-.64.54-1.58,1.27-2.35,1.8l-1.33.94c-.21.15-3.82,2.53-4.15,2.73a16.89,16.89,0,0,1-7,2.87,6.16,6.16,0,0,1-1.66,0Z"/></g></g><g id="layer6"><g id="layer3-7"><path id="path4592-3" class="cls-6" d="M147.74,72.79l-.86-.11a6.3,6.3,0,0,1-.86-.14l-.54-.14a14.39,14.39,0,0,1-2.79-1.06,24.18,24.18,0,0,1-9.92-10c-.34-.63-.62-1.15-.62-1.17a3.93,3.93,0,0,0-.18-.44,26.58,26.58,0,0,1-1.38-4,18.52,18.52,0,0,1-.6-5,15.6,15.6,0,0,1,1.11-6c1.2-3,3.18-5.49,7-8.67a44.19,44.19,0,0,1,4.8-3.3c.71-.41,2.77-1.39,2.87-1.43l.27-.1a20.8,20.8,0,0,1,2.7-.88l.32-.07A10.62,10.62,0,0,1,152,30a7.29,7.29,0,0,1,2.42.26,8.28,8.28,0,0,1,.93.27.74.74,0,0,1,.18.06,11.07,11.07,0,0,1,2,1.07,17.89,17.89,0,0,1,4.2,4.66c.17.26.33.49.35.51s1.94,2.86,1.94,2.9a4,4,0,0,0,.31.48A22.08,22.08,0,0,1,167.72,47a6.91,6.91,0,0,1,.28,2.32c0,1.76-.42,3-1.79,5.2l-.14.25a.42.42,0,0,1-.09.14,3.36,3.36,0,0,0-.36.54,1.12,1.12,0,0,1-.18.28,1,1,0,0,0-.18.31.31.31,0,0,1-.11.17,1.18,1.18,0,0,0-.22.31,3,3,0,0,1-.26.45,15.65,15.65,0,0,0-1,1.59l-.6,1.11c-.2.35-.5.91-.66,1.25a50.42,50.42,0,0,1-2.69,4.85q-3.81,5.79-9.25,6.85a13.76,13.76,0,0,1-2.76.17Z"/></g></g><g id="layer7"><g id="layer3-7-0"><path id="path4592-3-5" class="cls-6" d="M147.74,72.79l-.86-.11a6.3,6.3,0,0,1-.86-.14l-.54-.14a14.39,14.39,0,0,1-2.79-1.06,24.18,24.18,0,0,1-9.92-10c-.34-.63-.62-1.15-.62-1.17a3.93,3.93,0,0,0-.18-.44,26.58,26.58,0,0,1-1.38-4,18.52,18.52,0,0,1-.6-5,15.6,15.6,0,0,1,1.11-6c1.2-3,3.18-5.49,7-8.67a44.19,44.19,0,0,1,4.8-3.3c.71-.41,2.76-1.43,2.87-1.43l.27-.1a20.8,20.8,0,0,1,2.7-.88l.32-.07a11,11,0,0,1,2.94-.27,7.5,7.5,0,0,1,2.43.2,5,5,0,0,1,.93.27.35.35,0,0,0,.18.06,11.07,11.07,0,0,1,2,1.07,17.89,17.89,0,0,1,4.2,4.66c.17.26.33.49.35.51s1.94,2.86,1.94,2.9a4,4,0,0,0,.31.48A22.08,22.08,0,0,1,167.72,47a6.94,6.94,0,0,1,.28,2.32c0,1.76-.42,3-1.79,5.2l-.14.25a.42.42,0,0,1-.09.14,3.36,3.36,0,0,0-.36.54,1.12,1.12,0,0,1-.18.28,1,1,0,0,0-.18.31.31.31,0,0,1-.11.17,1.18,1.18,0,0,0-.22.31,4.29,4.29,0,0,1-.26.45,15.65,15.65,0,0,0-1,1.59l-.6,1.11c-.2.35-.5.91-.66,1.25a50.42,50.42,0,0,1-2.69,4.85q-3.81,5.79-9.25,6.85a13.76,13.76,0,0,1-2.76.17Z"/></g></g><g id="layer1"><g id="layer3" class="cls-8"><path id="path4592" class="cls-6" d="M150,73.46l-.8-.1c-.33,0-.69-.1-.8-.13l-.5-.14a12.11,12.11,0,0,1-2.6-1,22.4,22.4,0,0,1-9.23-9.3c-.32-.59-.58-1.07-.58-1.09s-.08-.2-.17-.41a26.36,26.36,0,0,1-1.29-3.68,17.65,17.65,0,0,1-.55-4.61,14.49,14.49,0,0,1,1-5.6c1.12-2.82,3-5.1,6.49-8.06a40.9,40.9,0,0,1,4.46-3.08c.66-.38,2.57-1.33,2.68-1.33l.25-.09a18.42,18.42,0,0,1,2.51-.82l.3-.07a10.06,10.06,0,0,1,2.73-.25,7.2,7.2,0,0,1,2.27.19,4.16,4.16,0,0,1,.86.25.32.32,0,0,0,.17.06,9.75,9.75,0,0,1,1.9,1,16.56,16.56,0,0,1,3.91,4.34c.16.24.31.45.33.47s1.8,2.67,1.8,2.7a4,4,0,0,0,.29.45,20.76,20.76,0,0,1,3.14,6.29,6.53,6.53,0,0,1,.26,2.17c0,1.63-.4,2.75-1.67,4.83l-.13.23a.43.43,0,0,1-.08.14,2.61,2.61,0,0,0-.34.5,1.41,1.41,0,0,1-.17.26.86.86,0,0,0-.16.29.31.31,0,0,1-.11.15,1.21,1.21,0,0,0-.2.29,3,3,0,0,1-.24.42,16.71,16.71,0,0,0-.91,1.48c-.12.25-.38.71-.56,1s-.45.85-.61,1.17a47.25,47.25,0,0,1-2.5,4.51c-2.37,3.6-5.23,5.72-8.61,6.38a13.29,13.29,0,0,1-2.57.16Z"/></g></g><g id="layer9"><g id="layer1-8"><path id="path6455" class="cls-9" d="M139.81,43.62a5.77,5.77,0,0,0-1.93.34,4.72,4.72,0,0,0-1.58,1,4.65,4.65,0,0,0-1,1.54,4.93,4.93,0,0,0-.35,1.9,4.74,4.74,0,0,0,.62,2.44,4.52,4.52,0,0,0,1.83,1.77,4.38,4.38,0,0,0,1.11.42,5.06,5.06,0,0,0,1.29.15,5.47,5.47,0,0,0,1.07-.11,6,6,0,0,0,1.07-.32h0l.08-2.39a4.46,4.46,0,0,0,1,1.44,5,5,0,0,0,1.39,1,5.3,5.3,0,0,0,.81.27V61.8h3.16V57.28L151,61.8h9.37V59.33h-2.94v-.93h2.6V56.05h-2.6v-.85h4v6.6h3.28V55.19h1.81V52.71h-1.5a3.56,3.56,0,0,0,1.42-1.27,2.7,2.7,0,0,0,.41-1.06,14,14,0,0,0,.13-1.6V43.84h-3.28V49a2.37,2.37,0,0,1-.23,1,.71.71,0,0,1-.3.27,1.08,1.08,0,0,1-.49.07.72.72,0,0,1-.6-.32h0a2.29,2.29,0,0,1-.2-1.18v-5h-3.28v1.72a2.57,2.57,0,0,0-.7-.93h0a4,4,0,0,0-1.3-.64,4.15,4.15,0,0,0-1.44-.16h-4.12v3l-.09-.26A4.69,4.69,0,0,0,150,45a4.6,4.6,0,0,0-1.58-1,5.06,5.06,0,0,0-1.92-.35,5.48,5.48,0,0,0-1.92.35v0h0v0A4.6,4.6,0,0,0,143,45a5.72,5.72,0,0,0-1,1.53V44.09h0a5.63,5.63,0,0,0-1.05-.35,5.07,5.07,0,0,0-1.1-.11Zm15.12,2.56h0a1,1,0,0,1,.62.24.87.87,0,0,1,.26.67h0a.87.87,0,0,1-.26.66h0a1.09,1.09,0,0,1-.72.23h-.52V46.19h.57Zm-15,.41h.09a2.25,2.25,0,0,1,1,.21,3.06,3.06,0,0,1,.71.45h0a5,5,0,0,0-.13,1.15,6,6,0,0,0,.12,1.11h0A4.69,4.69,0,0,1,141,50a2.72,2.72,0,0,1-1,.21h0a1.69,1.69,0,0,1-.67-.11,1.62,1.62,0,0,1-.58-.38,1.73,1.73,0,0,1-.37-.59,1.81,1.81,0,0,1-.1-.69,1.75,1.75,0,0,1,.11-.72,1.78,1.78,0,0,1,.38-.61h0a1.71,1.71,0,0,1,.6-.38,1.79,1.79,0,0,1,.61-.12Zm6.44.08h.08a1.41,1.41,0,0,1,.61.11,1.55,1.55,0,0,1,.51.37,1.88,1.88,0,0,1,.42,1.27,1.84,1.84,0,0,1-.42,1.25h0a1.53,1.53,0,0,1-.51.36,1.41,1.41,0,0,1-.61.11h0a1.41,1.41,0,0,1-.61-.11,1.43,1.43,0,0,1-.51-.36h0a1.85,1.85,0,0,1-.43-1.25,1.88,1.88,0,0,1,.43-1.27,1.31,1.31,0,0,1,.5-.37,1.47,1.47,0,0,1,.46-.11Zm12.27,1.43h0v.68a6.45,6.45,0,0,0,.13,1.61,2.42,2.42,0,0,0,.4,1,3.71,3.71,0,0,0,1.44,1.28h-1.23l-2.28-3.47h0a1.61,1.61,0,0,0,.71-.23,1.7,1.7,0,0,0,.57-.5,2.65,2.65,0,0,0,.24-.4Zm-4.34,1.84,1.47,2.77h-1.49V50h0Zm-3.23,0h0V57.3h0l-2.66-4.48h0a4.45,4.45,0,0,0,1.51-1,4.57,4.57,0,0,0,1-1.53c0-.11.08-.21.11-.31Z"/><path id="path6400" class="cls-9" d="M143.41,58.74a1.63,1.63,0,0,0-1.12.46,1.58,1.58,0,0,0,1.12,2.69,1.57,1.57,0,0,0,1.11-2.69A1.59,1.59,0,0,0,143.41,58.74Z"/></g></g><g class="cls-4"><path class="cls-10" d="M117.38,113.44v-8c0-10.6-3.81-16.07-9.28-16.07-9.12-.16-11.27,4.81-11.27,12.93l-.17,61.47c0,7,2.82,11.1,10.44,11.1,9.94,0,10.77-10.27,10.77-17.89V145.75H147V161c0,21.37-12.26,36.29-42.09,36.29-26.85,0-37.28-14.26-37.28-39.61v-51c0-27,12.42-39.6,39.1-39.6C131.63,67,147,77.65,147,103v10.44Z"/></g><rect class="cls-11" width="444" height="296"/></g></g></g></svg>