<svg xmlns="http://www.w3.org/2000/svg" viewBox="0 0 356 221"><defs><style>.cls-1,.cls-7{isolation:isolate;}.cls-2,.cls-5{mix-blend-mode:multiply;}.cls-3,.cls-5{fill:#6dbfa2;}.cls-4{fill:#ec6328;}.cls-6,.cls-7{fill:#8c7fb5;}.cls-7,.cls-8{opacity:0.8;}.cls-9{fill:#fff;}.cls-10{fill:#453481;}.cls-11{fill:none;}</style></defs><g class="cls-1"><g id="Capa_2" data-name="Capa 2"><g id="Capa_1-2" data-name="Capa 1"><g class="cls-2"><path class="cls-3" d="M162,103.44v-8c0-10.6-3.8-16.07-9.27-16.07-9.12-.16-11.27,4.81-11.27,12.93l-.17,61.47c0,7,2.82,11.1,10.44,11.1,9.94,0,10.77-10.27,10.77-17.89V135.75h29.17V151c0,21.37-12.26,36.29-42.09,36.29-26.85,0-37.29-14.26-37.29-39.61v-51c0-27,12.43-39.6,39.11-39.6,24.86,0,40.27,10.61,40.27,36v10.44Z"/></g><g class="cls-2"><path class="cls-4" d="M275.11,142.71v8.78c0,7.13,2.32,13.42,11.6,13.42,6.8,0,9.78-6.13,9.78-12.42,0-10.44-8.62-14.42-16.24-19.06-8.95-5.14-16.57-9.94-22-16.24-5.3-6.29-8.45-13.92-8.45-24.85C249.76,69,263.85,57,286.38,57c25.36,0,38.28,16.9,36.95,40.27H296.49c-.33-7.29,0-17.24-9.61-17.9-6-.5-9.45,2.82-10.11,8.29-.83,7.45,3,11.26,8.78,15.24,10.94,7,20.38,11.27,27.18,17.57s10.77,14.58,10.77,29.66c0,23.86-13.26,37.12-37.45,37.12-26.68,0-37.94-14.92-37.94-31.32V142.71Z"/></g><path class="cls-5" d="M263,184.3,236,60H200.88L173.71,184.3h31.14l6.88-51.43a15,15,0,1,1,12,.67l7.73,50.76H263Z"/><path class="cls-6" d="M111.59,70a9.77,9.77,0,0,1-1.28-.07l-.75-.1a10.25,10.25,0,0,1-1.81-.33l-.39-.1c-.55-.15-1.06-.3-1.56-.48l-.61-.14-.43-.12a20.8,20.8,0,0,1-4.1-1.54,25,25,0,0,1-3.29-2,8.81,8.81,0,0,1-2.53-1.44V184.3H124V65.19a18.52,18.52,0,0,1-9,4.51A21,21,0,0,1,111.59,70Z"/><g id="layer4"><g id="layer1-7"><path id="path4046" class="cls-6" d="M102.42,59.53l-.67-.07a12,12,0,0,1-7.32-3.08C91.69,53.8,90.22,50,90.05,45.07A25.5,25.5,0,0,1,92.67,32.9C95.13,28,99,24.55,103.46,23.32a12.48,12.48,0,0,1,2.21-.49,3.18,3.18,0,0,0,.41-.06,31.53,31.53,0,0,1,6.61,0c1.09.12,3.08.42,3.15.46a1.81,1.81,0,0,0,.36.08c.18,0,.73.14,1.22.26,6.33,1.49,10.65,4.61,11.94,8.62a8.64,8.64,0,0,1,.42,3.38,12.5,12.5,0,0,1-.24,2.87c-.12.71-.25,1.47-.28,1.68s-.16.87-.28,1.44-.27,1.3-.33,1.61a35.53,35.53,0,0,1-1.39,5.56,10.64,10.64,0,0,1-3.5,5.27A10.76,10.76,0,0,1,120,55.61l-1,.22-.82.18-1,.22-1.29.29c-.26,0-.7.17-1,.25l-1,.28c-.26.07-1.06.32-1.79.56a33.21,33.21,0,0,1-7.43,1.84c-.37,0-2.37.11-2.41.08Z"/></g></g><g id="layer5"><g id="layer2"><path id="path4060" class="cls-7" d="M110.4,60.33a7.43,7.43,0,0,1-2.81-.85l-1-.49c-.25-.15-1.41-.87-1.65-1l-.62-.4-.67-.43c-.47-.31-2.07-1.27-2.19-1.31a5.12,5.12,0,0,1-.52-.28c-.22-.12-1.24-.66-2.27-1.18A37,37,0,0,1,94.53,52c-3.75-2.48-6-5.47-6.75-9a12.49,12.49,0,0,1,.16-5.15,19.59,19.59,0,0,1,6.14-9.34A25.14,25.14,0,0,1,105,22.71a20,20,0,0,1,8.1-.21c4.37.88,8.29,3.76,12.21,9,3.24,4.31,5,8.44,5.21,12.13A9.67,9.67,0,0,1,126.93,52c-.64.54-1.58,1.27-2.35,1.8l-1.33.94c-.21.15-3.82,2.53-4.15,2.73a16.89,16.89,0,0,1-7,2.87,6.16,6.16,0,0,1-1.66,0Z"/></g></g><g id="layer6"><g id="layer3-7"><path id="path4592-3" class="cls-6" d="M108.74,62.79l-.86-.11a6.3,6.3,0,0,1-.86-.14l-.54-.14a14.39,14.39,0,0,1-2.79-1.06,24.18,24.18,0,0,1-9.92-10c-.34-.63-.62-1.15-.62-1.17a3.93,3.93,0,0,0-.18-.44,26.58,26.58,0,0,1-1.38-4,18.52,18.52,0,0,1-.6-5,15.6,15.6,0,0,1,1.11-6c1.2-3,3.18-5.49,7-8.67a44.19,44.19,0,0,1,4.8-3.3c.71-.41,2.77-1.39,2.87-1.43l.27-.1a20.8,20.8,0,0,1,2.7-.88l.32-.07a10.62,10.62,0,0,1,3-.33,7.29,7.29,0,0,1,2.42.26,8.28,8.28,0,0,1,.93.27.74.74,0,0,1,.18.06,11.07,11.07,0,0,1,2,1.07,17.89,17.89,0,0,1,4.2,4.66c.17.26.33.49.35.51s1.94,2.86,1.94,2.9a4,4,0,0,0,.31.48A22.08,22.08,0,0,1,128.72,37a6.91,6.91,0,0,1,.28,2.32c0,1.76-.42,3-1.79,5.2l-.14.25a.42.42,0,0,1-.09.14,3.36,3.36,0,0,0-.36.54,1.12,1.12,0,0,1-.18.28,1,1,0,0,0-.18.31.31.31,0,0,1-.11.17,1.18,1.18,0,0,0-.22.31,3,3,0,0,1-.26.45,15.65,15.65,0,0,0-1,1.59l-.6,1.11c-.2.35-.5.91-.66,1.25a50.42,50.42,0,0,1-2.69,4.85q-3.81,5.79-9.25,6.85a13.76,13.76,0,0,1-2.76.17Z"/></g></g><g id="layer7"><g id="layer3-7-0"><path id="path4592-3-5" class="cls-6" d="M108.74,62.79l-.86-.11a6.3,6.3,0,0,1-.86-.14l-.54-.14a14.39,14.39,0,0,1-2.79-1.06,24.18,24.18,0,0,1-9.92-10c-.34-.63-.62-1.15-.62-1.17a3.93,3.93,0,0,0-.18-.44,26.58,26.58,0,0,1-1.38-4,18.52,18.52,0,0,1-.6-5,15.6,15.6,0,0,1,1.11-6c1.2-3,3.18-5.49,7-8.67a44.19,44.19,0,0,1,4.8-3.3c.71-.41,2.76-1.43,2.87-1.43l.27-.1a20.8,20.8,0,0,1,2.7-.88l.32-.07a11,11,0,0,1,2.94-.27,7.5,7.5,0,0,1,2.43.2,5,5,0,0,1,.93.27.35.35,0,0,0,.18.06,11.07,11.07,0,0,1,2,1.07,17.89,17.89,0,0,1,4.2,4.66c.17.26.33.49.35.51s1.94,2.86,1.94,2.9a4,4,0,0,0,.31.48A22.08,22.08,0,0,1,128.72,37a6.94,6.94,0,0,1,.28,2.32c0,1.76-.42,3-1.79,5.2l-.14.25a.42.42,0,0,1-.09.14,3.36,3.36,0,0,0-.36.54,1.12,1.12,0,0,1-.18.28,1,1,0,0,0-.18.31.31.31,0,0,1-.11.17,1.18,1.18,0,0,0-.22.31,4.29,4.29,0,0,1-.26.45,15.65,15.65,0,0,0-1,1.59l-.6,1.11c-.2.35-.5.91-.66,1.25a50.42,50.42,0,0,1-2.69,4.85q-3.81,5.79-9.25,6.85a13.76,13.76,0,0,1-2.76.17Z"/></g></g><g id="layer1"><g id="layer3" class="cls-8"><path id="path4592" class="cls-6" d="M111,63.46l-.8-.1c-.33,0-.69-.1-.8-.13l-.5-.14a12.11,12.11,0,0,1-2.6-1,22.4,22.4,0,0,1-9.23-9.3c-.32-.59-.58-1.07-.58-1.09s-.08-.2-.17-.41a26.36,26.36,0,0,1-1.29-3.68A17.65,17.65,0,0,1,94.51,43a14.49,14.49,0,0,1,1-5.6c1.12-2.82,3-5.1,6.49-8.06a40.9,40.9,0,0,1,4.46-3.08c.66-.38,2.57-1.33,2.68-1.33l.25-.09a18.42,18.42,0,0,1,2.51-.82l.3-.07a10.06,10.06,0,0,1,2.73-.25,7.2,7.2,0,0,1,2.27.19,4.16,4.16,0,0,1,.86.25.32.32,0,0,0,.17.06,9.75,9.75,0,0,1,1.9,1,16.56,16.56,0,0,1,3.91,4.34c.16.24.31.45.33.47s1.8,2.67,1.8,2.7a4,4,0,0,0,.29.45,20.76,20.76,0,0,1,3.14,6.29,6.53,6.53,0,0,1,.26,2.17c0,1.63-.4,2.75-1.67,4.83l-.13.23a.43.43,0,0,1-.08.14,2.61,2.61,0,0,0-.34.5,1.41,1.41,0,0,1-.17.26.86.86,0,0,0-.16.29.31.31,0,0,1-.11.15,1.21,1.21,0,0,0-.2.29,3,3,0,0,1-.24.42,16.71,16.71,0,0,0-.91,1.48c-.12.25-.38.71-.56,1s-.45.85-.61,1.17a47.25,47.25,0,0,1-2.5,4.51c-2.37,3.6-5.23,5.72-8.61,6.38a13.29,13.29,0,0,1-2.57.16Z"/></g></g><g id="layer9"><g id="layer1-8"><path id="path6455" class="cls-9" d="M100.81,33.62a5.77,5.77,0,0,0-1.93.34,4.72,4.72,0,0,0-1.58,1,4.65,4.65,0,0,0-1,1.54,4.93,4.93,0,0,0-.35,1.9,4.74,4.74,0,0,0,.62,2.44,4.52,4.52,0,0,0,1.83,1.77,4.38,4.38,0,0,0,1.11.42,5.06,5.06,0,0,0,1.29.15,5.47,5.47,0,0,0,1.07-.11,6,6,0,0,0,1.07-.32h0l.08-2.39a4.46,4.46,0,0,0,1,1.44,5,5,0,0,0,1.39,1,5.3,5.3,0,0,0,.81.27V51.8h3.16V47.28L112,51.8h9.37V49.33h-2.94v-.93h2.6V46.05h-2.6v-.85h4v6.6h3.28V45.19h1.81V42.71h-1.5a3.56,3.56,0,0,0,1.42-1.27,2.7,2.7,0,0,0,.41-1.06,14,14,0,0,0,.13-1.6V33.84h-3.28V39a2.37,2.37,0,0,1-.23,1,.71.71,0,0,1-.3.27,1.08,1.08,0,0,1-.49.07.72.72,0,0,1-.6-.32h0a2.29,2.29,0,0,1-.2-1.18v-5h-3.28v1.72a2.57,2.57,0,0,0-.7-.93h0a4,4,0,0,0-1.3-.64,4.15,4.15,0,0,0-1.44-.16h-4.12v3l-.09-.26A4.69,4.69,0,0,0,111,35a4.6,4.6,0,0,0-1.58-1,5.06,5.06,0,0,0-1.92-.35,5.48,5.48,0,0,0-1.92.35v0h0v0A4.6,4.6,0,0,0,104,35a5.72,5.72,0,0,0-1,1.53V34.09h0a5.63,5.63,0,0,0-1-.35,5.07,5.07,0,0,0-1.1-.11Zm15.12,2.56h0a1,1,0,0,1,.62.24.87.87,0,0,1,.26.67h0a.87.87,0,0,1-.26.66h0a1.09,1.09,0,0,1-.72.23h-.52V36.19h.57Zm-15,.41h.09a2.25,2.25,0,0,1,1,.21,3.06,3.06,0,0,1,.71.45h0a5,5,0,0,0-.13,1.15,6,6,0,0,0,.12,1.11h0A4.69,4.69,0,0,1,102,40a2.72,2.72,0,0,1-1,.21h0a1.69,1.69,0,0,1-.67-.11,1.62,1.62,0,0,1-.58-.38,1.73,1.73,0,0,1-.37-.59,1.81,1.81,0,0,1-.1-.69,1.75,1.75,0,0,1,.11-.72,1.78,1.78,0,0,1,.38-.61h0a1.71,1.71,0,0,1,.6-.38,1.79,1.79,0,0,1,.61-.12Zm6.44.08h.08a1.41,1.41,0,0,1,.61.11,1.55,1.55,0,0,1,.51.37,1.88,1.88,0,0,1,.42,1.27,1.84,1.84,0,0,1-.42,1.25h0a1.53,1.53,0,0,1-.51.36,1.41,1.41,0,0,1-.61.11h0a1.41,1.41,0,0,1-.61-.11,1.43,1.43,0,0,1-.51-.36h0a1.85,1.85,0,0,1-.43-1.25,1.88,1.88,0,0,1,.43-1.27,1.31,1.31,0,0,1,.5-.37,1.47,1.47,0,0,1,.46-.11Zm12.27,1.43h0v.68a6.45,6.45,0,0,0,.13,1.61,2.42,2.42,0,0,0,.4,1,3.71,3.71,0,0,0,1.44,1.28h-1.23l-2.28-3.47h0a1.61,1.61,0,0,0,.71-.23,1.7,1.7,0,0,0,.57-.5,2.65,2.65,0,0,0,.24-.4Zm-4.34,1.84,1.47,2.77h-1.49V40h0Zm-3.23,0h0V47.3h0l-2.66-4.48h0a4.45,4.45,0,0,0,1.51-1,4.57,4.57,0,0,0,1-1.53c0-.11.08-.21.11-.31Z"/><path id="path6400" class="cls-9" d="M104.41,48.74a1.63,1.63,0,0,0-1.12.46,1.58,1.58,0,0,0,1.12,2.69,1.57,1.57,0,0,0,1.11-2.69A1.59,1.59,0,0,0,104.41,48.74Z"/></g></g><g class="cls-2"><path class="cls-10" d="M78.38,103.44v-8c0-10.6-3.81-16.07-9.28-16.07C60,79.25,57.83,84.22,57.83,92.34l-.17,61.47c0,7,2.82,11.1,10.44,11.1,9.94,0,10.77-10.27,10.77-17.89V135.75H108V151c0,21.37-12.26,36.29-42.09,36.29-26.85,0-37.28-14.26-37.28-39.61v-51c0-27,12.42-39.6,39.1-39.6C92.63,57,108,67.65,108,93v10.44Z"/></g><rect class="cls-11" width="356" height="221"/></g></g></g></svg>