<?xml version="1.0" encoding="UTF-8" standalone="no"?>
<!-- Generator: Adobe Illustrator 27.2.0, SVG Export Plug-In . SVG Version: 6.00 Build 0)  -->

<svg
   version="1.1"
   id="Capa_1"
   x="0px"
   y="0px"
   viewBox="0 0 1681056.3 225701.2"
   xml:space="preserve"
   width="1681056.4"
   height="225701.2"
   xmlns:xlink="http://www.w3.org/1999/xlink"
   xmlns="http://www.w3.org/2000/svg"
   xmlns:svg="http://www.w3.org/2000/svg"><defs
   id="defs53" />
<style
   type="text/css"
   id="style2">
	.st0{fill:#061B2B;}
	.st1{clip-path:url(#SVGID_00000141457630763272338280000011951342782421278342_);}
	.st2{fill:url(#SVGID_00000031208362291432054880000013481612285316729481_);}
	.st3{fill:url(#SVGID_00000146462296665675389390000012247526026658626743_);}
	.st4{font-family:'Gilroy-Light';}
	.st5{font-size:57px;}
</style>
<g
   id="g12">
	<path
   class="st0"
   d="M 0,164 C 0,75.1 66,6.9 157.1,6.9 c 54.8,0 103.2,27.2 129.5,69.9 L 227,111.3 C 213.6,88 187.7,74.2 157.1,74.2 103.6,74.2 69,110 69,164 c 0,54 34.5,89.8 88.1,89.8 30.6,0 57,-13.8 69.9,-37.1 l 59.6,34.5 C 260.7,293.9 212.4,321.1 157.1,321.1 66,321.1 0,252.9 0,164 Z"
   id="path4" />
	<path
   class="st0"
   d="M 388,12.9 V 315 H 319 V 12.9 Z"
   id="path6" />
	<path
   class="st0"
   d="m 426.9,164 c 0,-88.9 66,-157.1 157.1,-157.1 54.8,0 103.2,27.2 129.5,69.9 l -59.6,34.5 C 640.5,88 614.6,74.2 584,74.2 c -53.5,0 -88,35.8 -88,89.8 0,54 34.5,89.8 88,89.8 30.6,0 57,-13.8 69.9,-37.1 l 59.6,34.5 C 687.6,293.9 639.3,321.1 584,321.1 492.9,321.1 426.9,252.9 426.9,164 Z"
   id="path8" />
	<path
   class="st0"
   d="M 922.8,267.6 H 810.6 l -15.1,47.5 H 720 L 822.6,12.9 h 88 L 1013.3,315 h -75.5 z m -20.7,-64.7 -35.4,-111 -35.4,110.9 h 70.8 z"
   id="path10" />
</g>
<g
   id="g40"
   transform="scale(1,0.94719167)">
	<defs
   id="defs15"><rect
     id="SVGID_1_"
     x="1035.1"
     width="245.89999"
     height="338.39999"
     y="0" /></defs>
	<clipPath
   id="SVGID_00000094601607629638894370000012507376808985985689_">
		<use
   xlink:href="#SVGID_1_"
   style="overflow:visible"
   id="use17" />
	</clipPath>
	<g
   clip-path="url(#SVGID_00000094601607629638894370000012507376808985985689_)"
   id="g38">
		<g
   id="g36">
			
				<linearGradient
   id="SVGID_00000059269000586518425360000012634044453030929340_"
   gradientUnits="userSpaceOnUse"
   x1="1035.1101"
   y1="660.505"
   x2="1281.1705"
   y2="660.505"
   gradientTransform="translate(0,-491.33)">
				<stop
   offset="0"
   style="stop-color:#404B5C"
   id="stop20" />
				<stop
   offset="1"
   style="stop-color:#FFFFFF"
   id="stop22" />
			</linearGradient>
			<path
   style="fill:url(#SVGID_00000059269000586518425360000012634044453030929340_)"
   d="m 1162.9,338.4 c -32.2,0 -59.3,-7.2 -81.4,-21.6 -21.9,-14.4 -37.5,-34.1 -46.4,-58.8 l 54.8,-32.1 c 12.7,33.1 37.7,49.7 74.8,49.7 17.9,0 31.2,-3.2 39.5,-9.7 8.4,-6.5 12.6,-14.7 12.6,-24.7 0,-11.4 -5.1,-20.4 -15.4,-26.7 -10.2,-6.3 -28.5,-13.2 -54.8,-20.7 -14.6,-4.4 -26.9,-8.7 -37,-13 -10.1,-4.4 -20.2,-10.2 -30.2,-17.4 -10,-7.2 -17.8,-16.5 -23,-27.7 -5.3,-11.2 -7.9,-24.2 -7.9,-39 0,-29.5 10.4,-52.9 31.3,-70.4 C 1100.9,8.8 1126,0 1155.5,0 c 26.3,0 49.5,6.4 69.5,19.3 20,12.9 35.5,30.7 46.7,53.7 l -53.9,31.2 c -13,-27.9 -33.8,-41.8 -62.2,-41.8 -13.3,0 -23.8,3 -31.3,9 -7.6,6.1 -11.3,13.8 -11.3,23.5 0,10.2 4.3,18.5 12.8,24.8 8.5,6.3 24.8,13.2 49,20.7 9.9,3.1 17.4,5.5 22.5,7.2 5.1,1.7 12.1,4.4 20.9,7.9 8.8,3.6 15.6,6.9 20.5,10 4.8,3.1 10.3,7.3 16.5,12.6 6.2,5.3 10.9,10.7 14.2,16.3 3.2,5.6 6.1,12.3 8.4,20.2 2.3,7.9 3.5,16.5 3.5,25.8 0,30.1 -10.9,53.9 -32.8,71.6 -21.8,17.7 -50.3,26.5 -85.3,26.5 z"
   id="path25" />
			
				<linearGradient
   id="SVGID_00000026136334338487521210000006291460419690695810_"
   gradientUnits="userSpaceOnUse"
   x1="1035.1099"
   y1="767.93011"
   x2="1257.2599"
   y2="767.93011"
   gradientTransform="translate(0,-491.33)">
				<stop
   offset="0"
   style="stop-color:#FFFFFF"
   id="stop27" />
				<stop
   offset="1"
   style="stop-color:#061B2B"
   id="stop29" />
			</linearGradient>
			<path
   style="fill:url(#SVGID_00000026136334338487521210000006291460419690695810_)"
   d="m 1206.6,218.2 c 7.3,6.8 10.2,13 10.2,22.9 0,10 -4.2,18.1 -12.6,24.7 -8.4,6.5 -21.5,9.7 -39.5,9.7 -37.1,0 -62.2,-16.6 -74.8,-49.7 l -54.8,32 c 9,24.8 24.5,44.4 46.4,58.8 22,14.4 49.1,21.6 81.4,21.6 35,0 63.4,-8.8 85.3,-26.5 27.7,-31.6 -6.7,-77.9 -46.2,-97 z"
   id="path32" />
			<path
   class="st0"
   d="m 1125.4,119.6 c -8.4,-6.3 -12.7,-14.6 -12.7,-24.8 0,-9.6 3.8,-17.4 11.3,-23.5 7.6,-6.1 18,-9 31.3,-9 28.5,0 49.3,13.9 62.2,41.8 l 53.9,-31.2 C 1260.2,49.9 1244.7,32.1 1224.7,19.2 1205,6.4 1181.8,0 1155.5,0 c -29.4,0 -54.6,8.8 -75.6,26.3 -0.4,0.4 -0.8,0.9 -1.2,1.3 -27.3,33.3 10.9,73 46.7,92.1 z"
   id="path34" />
		</g>
	</g>
</g>

</svg>
