<svg width="891" height="860" viewBox="0 0 891 860" fill="none" xmlns="http://www.w3.org/2000/svg">
<path d="M317.2 783.204C316.956 782.991 311.115 782.414 304.219 781.921C249.681 778.024 198.531 756.503 161.942 722.059C108.715 671.953 80.275 598.509 76.9043 502.456C74.0477 421.05 92.1382 337.06 127.85 265.928C175.71 170.6 250.907 103.821 337.375 79.8605C357.865 74.1827 377.816 69.7663 380.423 70.3313C380.96 70.4476 384.528 69.9495 388.352 69.2243C411.797 64.7781 478.987 64.7537 516.67 69.1778C537.806 71.6592 576.491 77.3387 577.81 78.154C578.312 78.4641 581.53 79.1331 584.962 79.6408C588.394 80.1485 599.038 82.4166 608.616 84.6812C731.501 113.736 815.489 174.388 840.495 252.137C847.643 274.359 848.946 284.775 848.717 317.867C848.526 345.476 848.069 351.003 844.105 373.592C841.684 387.384 839.166 402.116 838.509 406.331C837.851 410.545 835.43 423.083 833.129 434.193C830.827 445.303 827.94 459.408 826.713 465.538C814.835 524.886 809.901 544.68 799.805 573.505C783.347 620.489 761.245 653.773 731.779 675.95C715.052 688.539 683.826 702.031 659.465 707.196C656.4 707.845 647.936 709.761 640.657 711.454C633.378 713.146 626.169 714.713 624.637 714.937C623.104 715.161 614.641 717.023 605.829 719.075C597.018 721.128 585.734 723.69 580.753 724.77C575.773 725.849 567.31 728.042 561.946 729.642C556.583 731.243 548.119 733.675 543.139 735.047C538.159 736.42 522.486 741.325 508.311 745.947C435.179 769.797 410.003 776.049 364.123 781.753C356.781 782.666 317.958 783.867 317.2 783.204V783.204Z" fill="#4F027C"/>
<path opacity="0.8" d="M472.215 798.815C453.206 796.967 438.852 792.627 417.652 782.317C409.585 778.395 401.098 774.07 398.79 772.707C393.864 769.798 371.397 755.796 366.783 752.759C365.03 751.605 359.637 748.144 354.797 745.067C349.958 741.99 344.031 738.182 341.626 736.606C332.614 730.697 301.469 712.067 299.128 711.184C297.789 710.68 293.233 708.275 289.002 705.842C284.771 703.408 264.947 693.039 244.947 682.8C201.498 660.555 187.803 652.816 164.029 637.076C91.205 588.864 47.6397 530.684 32.823 461.856C26.7333 433.568 28.0213 392.384 35.9557 361.688C52.2778 298.544 94.181 234.869 155.302 180.332C217.678 124.676 289.212 86.6863 366.623 68.1048C417.274 55.9465 475.866 54.4403 523.84 64.0631C608.75 81.0944 684.878 136.956 760.995 238.085C824.001 321.795 858.498 402.056 862.283 473.744C865.844 541.186 844.093 592.471 793.221 636.575C780.97 647.197 762.584 661.371 747.736 671.642C741.429 676.005 737.537 678.74 721.86 689.83C717.734 692.749 647.683 738.898 641.243 742.941C587.048 776.957 542.683 795.004 504.382 798.612C488.442 800.113 485.751 800.13 472.215 798.815V798.815Z" fill="#4F027C"/>
<path d="M439.958 846.556C437.661 846.241 430.145 845.304 423.255 844.474C416.365 843.644 408.848 842.428 406.552 841.773C404.255 841.118 399.557 839.848 396.112 838.952C377.263 834.048 363.269 828.743 341.826 818.373C268.48 782.902 195.963 709.756 149.258 624.135C142.632 611.989 137.212 601.771 137.212 601.427C137.212 601.083 135.572 597.24 133.567 592.887C124.814 573.879 111.587 535.885 106.825 516.072C98.1675 480.055 95.0848 454.585 95.1793 419.856C95.2979 376.31 101.932 340.422 116.763 303.105C140.149 244.259 178.517 196.536 252.089 134.783C272.402 117.733 318.292 86.1412 345.306 70.6106C359.11 62.6746 399.112 43.5684 401.097 42.813C403.071 42.062 403.929 41.9341 406.341 40.8598C417.591 35.8503 446.063 26.6228 458.749 23.8749C461.429 23.2946 464.247 22.6578 465.013 22.4598C480.525 18.4491 494.198 16.063 522.27 16.0021C551.247 15.9393 553.603 17.2758 569.408 21.0367C578.595 23.2227 586.494 25.9173 587.434 26.2565C589.851 27.1291 589.352 26.7548 590.914 27.5107C594.229 27.5246 621.29 41.6161 630.563 48.1578C656.776 66.6497 684.239 97.2038 712.088 138.857C715.415 143.833 718.501 148.217 718.946 148.6C720.158 149.643 756.624 204.243 756.624 205.016C756.624 205.382 759.343 209.594 762.666 214.376C795.701 261.902 818.449 307.47 828.154 345.559C833.001 364.58 833.733 370.647 833.614 390.797C833.413 424.894 825.33 448.326 798.801 491.713C797.865 493.244 796.651 495.436 796.102 496.585C795.554 497.733 794.746 498.986 794.308 499.368C792.884 500.611 787.247 508.975 787.247 509.845C787.247 510.309 785.681 512.743 783.767 515.252C781.853 517.761 780.287 520.461 780.287 521.252C780.287 522.043 779.311 523.5 778.118 524.49C776.926 525.48 775.042 528.219 773.932 530.576C772.822 532.934 770.509 536.854 768.792 539.288C763.087 547.378 754.839 560.933 749.967 570.226C747.32 575.274 742.057 584.946 738.272 591.718C734.487 598.491 728.723 609.452 725.462 616.077C707.586 652.397 687.721 688.232 673.259 710.247C623.955 785.301 564.141 829.589 493.644 843.238C479.778 845.923 449.148 847.816 439.958 846.556V846.556Z" fill="#4F027B"/>
<path d="M439.956 846.556C437.66 846.241 430.143 845.304 423.253 844.474C416.363 843.644 408.847 842.428 406.55 841.773C404.253 841.118 399.555 839.849 396.11 838.952C377.261 834.048 363.267 828.743 341.825 818.373C268.479 782.902 195.962 709.757 149.256 624.135C142.631 611.99 137.21 601.771 137.21 601.427C137.21 601.083 135.57 597.24 133.566 592.887C124.813 573.879 111.586 535.885 106.824 516.072C98.1662 480.055 95.0836 454.586 95.1781 419.856C95.2967 376.311 101.931 340.423 116.762 303.106C140.148 244.26 178.516 196.537 252.088 134.784C272.401 117.734 318.291 86.1423 345.305 70.6116C359.109 62.6757 398.972 42.8141 401.096 42.8141C401.568 42.8141 403.927 41.9351 406.34 40.8609C417.589 35.8514 446.061 26.6239 458.748 23.8761C461.427 23.2957 464.246 22.6589 465.011 22.4609C480.523 18.4502 494.008 17.1905 522.081 17.1296C551.057 17.0668 553.601 17.2769 569.406 21.0378C578.593 23.2238 586.705 25.5727 587.432 26.2576C588.159 26.9424 589.725 27.5068 590.912 27.5118C594.228 27.5257 621.288 41.6172 630.561 48.1588C656.774 66.6507 684.237 97.2048 712.086 138.858C715.413 143.834 718.499 148.218 718.944 148.601C720.156 149.643 756.622 204.244 756.622 205.016C756.622 205.383 759.341 209.595 762.664 214.376C795.699 261.903 818.447 307.471 828.152 345.56C832.999 364.58 833.731 370.648 833.612 390.798C833.411 424.895 825.328 448.326 798.799 491.713C797.863 493.244 796.649 495.437 796.1 496.585C795.552 497.733 794.744 498.986 794.306 499.369C792.882 500.611 787.244 508.975 787.244 509.845C787.244 510.31 785.678 512.743 783.765 515.253C781.851 517.762 780.285 520.462 780.285 521.253C780.285 522.044 779.309 523.501 778.116 524.491C776.924 525.48 775.04 528.219 773.93 530.577C772.819 532.934 770.507 536.855 768.79 539.289C763.085 547.379 754.837 560.933 749.965 570.226C747.318 575.275 742.055 584.946 738.27 591.719C734.485 598.491 728.721 609.453 725.46 616.078C707.584 652.397 687.719 688.232 673.257 710.247C623.953 785.301 564.139 829.589 493.643 843.238C479.777 845.923 449.146 847.816 439.956 846.556V846.556Z" fill="url(#paint0_linear_1_2)"/>
<g opacity="0.8">
<path opacity="0.8" d="M484.422 859.518C482.284 859.225 475.288 858.353 468.874 857.58C462.461 856.807 455.464 855.675 453.327 855.066C451.189 854.456 446.816 853.274 443.609 852.44C426.064 847.875 413.038 842.937 393.08 833.285C324.808 800.268 257.308 732.183 213.834 652.485C207.667 641.18 202.622 631.668 202.622 631.348C202.622 631.028 201.095 627.451 199.229 623.399C191.082 605.706 178.77 570.341 174.337 551.898C166.279 518.373 163.409 494.666 163.497 462.339C163.608 421.806 169.783 388.402 183.587 353.666C205.356 298.892 241.069 254.47 309.551 196.99C328.459 181.119 371.174 151.713 396.319 137.257C409.167 129.87 446.273 111.383 448.25 111.383C448.689 111.383 450.885 110.565 453.131 109.565C463.602 104.902 490.105 96.3129 501.913 93.7552C504.407 93.215 507.031 92.6222 507.743 92.438C522.182 88.7048 534.734 87.5322 560.864 87.4755C587.836 87.4171 590.204 87.6127 604.916 91.1134C613.467 93.1481 621.017 95.3345 621.694 95.972C622.371 96.6095 623.829 97.1348 624.933 97.1394C628.02 97.1524 653.208 110.269 661.839 116.358C686.238 133.57 711.802 162.011 737.724 200.782C740.82 205.414 743.693 209.495 744.108 209.851C745.236 210.821 779.179 261.644 779.179 262.363C779.179 262.705 781.71 266.625 784.803 271.076C815.552 315.314 836.726 357.73 845.76 393.183C850.272 410.888 850.953 416.535 850.842 435.291C850.655 467.029 843.131 488.839 818.438 529.225C817.567 530.65 816.436 532.691 815.926 533.76C815.415 534.828 814.663 535.995 814.255 536.351C812.93 537.507 807.683 545.292 807.683 546.102C807.683 546.535 806.225 548.8 804.443 551.135C802.662 553.471 801.204 555.984 801.204 556.721C801.204 557.457 800.296 558.813 799.186 559.734C798.076 560.656 796.322 563.205 795.289 565.399C794.256 567.594 792.103 571.243 790.505 573.509C785.195 581.039 777.517 593.656 772.982 602.306C770.518 607.005 765.62 616.008 762.097 622.311C758.574 628.615 753.208 638.818 750.173 644.985C733.533 678.792 715.043 712.147 701.581 732.639C655.688 802.501 600.013 843.724 534.394 856.429C521.487 858.928 492.976 860.69 484.422 859.518V859.518Z" fill="url(#paint1_linear_1_2)"/>
</g>
<defs>
<linearGradient id="paint0_linear_1_2" x1="219.021" y1="197.398" x2="300.549" y2="302.787" gradientUnits="userSpaceOnUse">
<stop stop-color="white" stop-opacity="0.115108"/>
<stop offset="1" stop-color="white" stop-opacity="0"/>
</linearGradient>
<linearGradient id="paint1_linear_1_2" x1="158.281" y1="159.498" x2="617.929" y2="605.192" gradientUnits="userSpaceOnUse">
<stop stop-opacity="0.705882"/>
<stop offset="1" stop-opacity="0"/>
</linearGradient>
</defs>
</svg>
