<?xml version="1.0" encoding="UTF-8" standalone="no"?>
<svg
   width="1080"
   height="1080"
   viewBox="0 0 1080 1080"
   fill="none"
   version="1.1"
   id="svg1286"
   xmlns="http://www.w3.org/2000/svg"
   xmlns:svg="http://www.w3.org/2000/svg">
  <defs
     id="defs1290" />
  <path
     d="m 177.464,609 c -12.975,0 -23.892,-2.907 -32.75,-8.72 -8.858,-5.939 -15.096,-13.964 -18.714,-24.074 l 22.083,-13.08 c 5.115,13.522 15.158,20.283 30.129,20.283 7.236,0 12.539,-1.327 15.907,-3.98 3.369,-2.654 5.053,-6.003 5.053,-10.047 0,-4.676 -2.058,-8.278 -6.175,-10.805 -4.118,-2.654 -11.478,-5.497 -22.083,-8.53 -5.864,-1.77 -10.854,-3.539 -14.971,-5.308 -3.993,-1.769 -8.047,-4.107 -12.165,-7.014 -3.992,-3.033 -7.049,-6.824 -9.17,-11.373 -2.12,-4.55 -3.181,-9.857 -3.181,-15.923 0,-12.006 4.18,-21.547 12.539,-28.624 8.483,-7.203 18.651,-10.805 30.504,-10.805 10.604,0 19.899,2.654 27.884,7.962 8.109,5.181 14.409,12.447 18.901,21.799 l -21.709,12.701 c -5.239,-11.374 -13.598,-17.061 -25.076,-17.061 -5.365,0 -9.607,1.264 -12.726,3.791 -2.994,2.401 -4.491,5.561 -4.491,9.478 0,4.171 1.684,7.583 5.052,10.237 3.494,2.527 10.106,5.307 19.837,8.34 3.993,1.264 6.987,2.275 8.983,3.033 2.121,0.632 4.928,1.706 8.421,3.223 3.619,1.39 6.363,2.717 8.235,3.981 1.996,1.263 4.242,2.969 6.737,5.118 2.495,2.148 4.366,4.36 5.614,6.634 1.372,2.275 2.495,5.055 3.369,8.341 0.998,3.159 1.497,6.635 1.497,10.426 0,12.258 -4.429,21.989 -13.287,29.192 C 202.977,605.398 191.562,609 177.464,609 Z"
     fill="#061b2b"
     id="path1272" />
  <path
     d="m 316.72,473.654 h 25.826 v 132.692 h -19.65 l -56.142,-81.132 v 81.132 H 240.928 V 473.654 h 19.65 l 56.142,80.942 z"
     fill="#061b2b"
     id="path1274" />
  <path
     d="m 495.412,535.071 v 10.237 c 0,18.956 -5.988,34.31 -17.965,46.063 C 465.47,603.124 449.999,609 431.036,609 c -20.212,0 -36.992,-6.635 -50.341,-19.904 -13.225,-13.395 -19.837,-29.698 -19.837,-48.906 0,-19.336 6.55,-35.701 19.65,-49.097 13.224,-13.395 29.568,-20.093 49.03,-20.093 12.227,0 23.393,2.843 33.499,8.53 10.105,5.561 17.965,13.017 23.58,22.368 l -22.083,12.89 c -3.119,-5.434 -7.86,-9.857 -14.223,-13.269 -6.238,-3.412 -13.224,-5.118 -20.96,-5.118 -12.476,0 -22.769,4.17 -30.878,12.511 -7.985,8.214 -11.977,18.64 -11.977,31.278 0,12.511 4.055,22.873 12.164,31.087 8.234,8.088 19.089,12.132 32.563,12.132 9.981,0 18.215,-2.211 24.702,-6.634 6.613,-4.55 11.104,-10.742 13.475,-18.577 h -39.674 v -23.127 z"
     fill="#061b2b"
     id="path1276" />
  <path
     d="m 561.711,609 c -14.597,0 -26.574,-4.17 -35.931,-12.511 -9.357,-8.341 -14.035,-19.525 -14.035,-33.552 v -89.283 h 25.638 v 87.198 c 0,6.95 1.934,12.447 5.801,16.491 3.993,4.044 10.168,6.066 18.527,6.066 8.359,0 14.473,-2.022 18.34,-6.066 3.992,-4.044 5.989,-9.541 5.989,-16.491 v -87.198 h 25.825 v 89.283 c 0,14.027 -4.678,25.211 -14.036,33.552 C 588.472,604.83 576.433,609 561.711,609 Z"
     fill="#061b2b"
     id="path1278" />
  <path
     d="m 660.956,581.324 h 49.967 v 25.022 H 635.131 V 473.654 h 25.825 z"
     fill="#061b2b"
     id="path1280" />
  <path
     d="m 813.463,606.346 -7.86,-23.884 h -52.212 l -7.86,23.884 h -27.884 l 45.849,-132.692 h 32.001 l 46.037,132.692 z m -51.838,-48.338 h 35.931 L 779.59,503.794 Z"
     fill="#061b2b"
     id="path1282" />
  <path
     d="m 926.116,606.346 -26.387,-46.063 h -19.65 v 46.063 H 854.254 V 473.654 h 52.399 c 12.102,0 22.395,4.297 30.879,12.89 8.483,8.593 12.725,18.956 12.725,31.088 0,8.214 -2.308,15.86 -6.924,22.937 -4.616,6.95 -10.73,12.195 -18.34,15.733 L 954,606.346 Z M 880.079,498.107 v 39.239 h 26.574 c 4.866,0 9.045,-1.895 12.539,-5.687 3.493,-3.917 5.24,-8.593 5.24,-14.027 0,-5.434 -1.747,-10.047 -5.24,-13.838 -3.494,-3.791 -7.673,-5.687 -12.539,-5.687 z"
     fill="#061b2b"
     id="path1284" />
</svg>
